<svg width="17" height="16" viewBox="0 0 17 16" fill="none" xmlns="http://www.w3.org/2000/svg">
<g clip-path="url(#clip0_425_2343)">
<path d="M16.3976 8C16.3976 3.58172 12.8159 0 8.39758 0C3.9793 0 0.397583 3.58172 0.397583 8C0.397583 11.993 3.32305 15.3027 7.14758 15.9028V10.3125H5.11633V8H7.14758V6.2375C7.14758 4.2325 8.34196 3.125 10.1693 3.125C11.0443 3.125 11.9601 3.28125 11.9601 3.28125V5.25H10.9513C9.95758 5.25 9.64758 5.86672 9.64758 6.5V8H11.8663L11.5116 10.3125H9.64758V15.9028C13.4721 15.3027 16.3976 11.993 16.3976 8Z" fill="#18181B"/>
</g>
<defs>
<clipPath id="clip0_425_2343">
<rect width="16" height="16" fill="white" transform="translate(0.397583)"/>
</clipPath>
</defs>
</svg>
