<svg width="17" height="16" viewBox="0 0 17 16" fill="none" xmlns="http://www.w3.org/2000/svg">
<path d="M12.661 4.68141C12.1312 4.68245 11.7005 4.25347 11.6994 3.72365C11.6984 3.19384 12.1274 2.76305 12.6574 2.76201C13.1875 2.76097 13.6183 3.19021 13.6193 3.72002C13.6201 4.24984 13.1911 4.68038 12.661 4.68141Z" fill="#18181B"/>
<path fill-rule="evenodd" clip-rule="evenodd" d="M8.40523 12.1073C6.13697 12.1117 4.29432 10.2766 4.28992 8.00777C4.2855 5.73948 6.12115 3.89654 8.38943 3.89213C10.6582 3.88773 12.5011 5.72393 12.5055 7.99197C12.5099 10.2608 10.6738 12.1029 8.40523 12.1073ZM8.39228 5.33357C6.92002 5.33616 5.72821 6.53239 5.7308 8.00492C5.73365 9.47772 6.93013 10.6693 8.40238 10.6664C9.87516 10.6636 11.067 9.46761 11.0641 7.99481C11.0613 6.52202 9.8648 5.33072 8.39228 5.33357Z" fill="#18181B"/>
<path fill-rule="evenodd" clip-rule="evenodd" d="M3.14372 0.430986C3.65176 0.231917 4.23314 0.0955748 5.08435 0.0553988C5.93765 0.0144484 6.21007 0.00511401 8.38216 0.000968414C10.5548 -0.00317719 10.8272 0.00511241 11.6805 0.0429556C12.532 0.079762 13.1136 0.214032 13.6227 0.411029C14.1494 0.613983 14.5962 0.887188 15.0415 1.33069C15.4869 1.7747 15.7611 2.22001 15.9666 2.74594C16.1654 3.2545 16.3018 3.83537 16.3422 4.68712C16.3827 5.54015 16.3925 5.81231 16.3966 7.9847C16.4008 10.1568 16.392 10.4295 16.3547 11.2833C16.3176 12.1343 16.1836 12.7162 15.9866 13.225C15.7831 13.7517 15.5104 14.1986 15.0669 14.6439C14.6234 15.0895 14.1776 15.3635 13.6517 15.5693C13.1432 15.7678 12.5623 15.9042 11.7111 15.9449C10.8578 15.9853 10.5854 15.9949 8.41249 15.999C6.24064 16.0032 5.96824 15.9949 5.11495 15.9573C4.26347 15.92 3.68156 15.786 3.17275 15.5892C2.64606 15.3855 2.1992 15.1131 1.75389 14.6693C1.30832 14.2256 1.03384 13.78 0.828555 13.2541C0.629488 12.7458 0.493654 12.1646 0.452965 11.3137C0.412274 10.4601 0.402686 10.1874 0.398542 8.01529C0.394382 5.8429 0.402941 5.57074 0.440261 4.71744C0.47785 3.8657 0.611341 3.28404 0.808336 2.77471C1.0118 2.24826 1.28448 1.80165 1.72849 1.35609C2.17199 0.910776 2.6178 0.636012 3.14372 0.430986ZM3.69194 14.2453C3.97421 14.3539 4.39773 14.4835 5.17768 14.5174C6.02163 14.554 6.27434 14.562 8.4099 14.5579C10.5462 14.554 10.799 14.5449 11.6426 14.5052C12.4218 14.4682 12.8453 14.337 13.1268 14.2271C13.5003 14.0812 13.7663 13.9067 14.0457 13.6271C14.3251 13.3463 14.498 13.0796 14.6426 12.7061C14.7515 12.4236 14.8808 11.9998 14.9148 11.2198C14.9519 10.3764 14.9596 10.1234 14.9555 7.9873C14.9516 5.85171 14.9425 5.59873 14.9024 4.75503C14.8655 3.9756 14.7346 3.55205 14.6245 3.27082C14.4786 2.89679 14.3046 2.63137 14.0242 2.35169C13.7437 2.072 13.477 1.89963 13.103 1.755C12.8212 1.64588 12.3972 1.51679 11.6178 1.48284C10.7738 1.44577 10.5208 1.43825 8.38476 1.4424C6.2492 1.44655 5.99649 1.4551 5.15279 1.49502C4.37312 1.53208 3.95009 1.66298 3.66808 1.77314C3.29483 1.91907 3.02889 2.09248 2.74922 2.3732C2.47005 2.65391 2.29717 2.92012 2.15254 3.29441C2.0442 3.57643 1.91381 4.00048 1.88038 4.77991C1.84357 5.62387 1.8358 5.87686 1.83995 8.01244C1.84384 10.1485 1.85291 10.4015 1.89257 11.2447C1.92911 12.0247 2.06104 12.4477 2.17069 12.7299C2.31661 13.1029 2.49054 13.3689 2.77074 13.6486C3.05145 13.9272 3.31817 14.1006 3.69194 14.2453Z" fill="#18181B"/>
</svg>
