<svg width="17" height="16" viewBox="0 0 17 16" fill="none" xmlns="http://www.w3.org/2000/svg">
<g clip-path="url(#clip0_425_2349)">
<path fill-rule="evenodd" clip-rule="evenodd" d="M15.5619 3.22287C15.8102 3.47272 15.9885 3.78338 16.0789 4.12377C16.4135 5.38013 16.4135 8.00013 16.4135 8.00013C16.4135 8.00013 16.4135 10.6201 16.0789 11.8765C15.9885 12.2169 15.8102 12.5275 15.5619 12.7774C15.3137 13.0272 15.0042 13.2075 14.6644 13.3001C13.4135 13.6365 8.41345 13.6365 8.41345 13.6365C8.41345 13.6365 3.41345 13.6365 2.16254 13.3001C1.82274 13.2075 1.51322 13.0272 1.26498 12.7774C1.01673 12.5275 0.838456 12.2169 0.747998 11.8765C0.413452 10.6201 0.413452 8.00013 0.413452 8.00013C0.413452 8.00013 0.413452 5.38013 0.747998 4.12377C0.838456 3.78338 1.01673 3.47272 1.26498 3.22287C1.51322 2.97303 1.82274 2.79277 2.16254 2.70013C3.41345 2.36377 8.41345 2.36377 8.41345 2.36377C8.41345 2.36377 13.4135 2.36377 14.6644 2.70013C15.0042 2.79277 15.3137 2.97303 15.5619 3.22287ZM10.9589 8.00015L6.7771 5.62106V10.3792L10.9589 8.00015Z" fill="#18181B"/>
</g>
<defs>
<clipPath id="clip0_425_2349">
<rect width="16" height="16" fill="white" transform="translate(0.397583)"/>
</clipPath>
</defs>
</svg>
