<svg width="70" height="24" viewBox="0 0 70 24" fill="none" xmlns="http://www.w3.org/2000/svg">
<path fill-rule="evenodd" clip-rule="evenodd" d="M18.3325 6.70843C19.1422 1.61928 15.0361 0 11.2771 0H3.75903L0 23.5952H8.61686C14.2843 23.5952 16.6554 19.7783 17.1181 16.8289C17.6385 13.706 16.3084 11.7398 13.1855 11.5084V11.4506C15.8458 11.4506 17.9277 9.42651 18.3325 6.70843ZM9.94698 5.08916C11.2771 5.08916 12.1446 5.7253 11.9132 7.11325C11.6819 8.6747 10.4096 9.19518 9.02168 9.13735H8.6747L9.31084 5.08916H9.94698ZM8.44337 13.9952C9.88915 13.9952 10.9879 14.6313 10.7566 16.2506C10.5253 17.812 9.19518 18.506 7.74939 18.506H7.22891L7.92289 13.9952H8.44337ZM52.6264 3.18072L51.5855 9.6C51.065 8.55903 49.9084 7.34458 48.5783 7.34458C47.8843 7.34458 47.0168 7.80723 46.9012 8.61687C46.8433 9.07952 47.0168 9.48434 47.2481 9.77349C47.446 10.0703 47.7707 10.3247 48.0415 10.5369C48.0873 10.5728 48.1316 10.6075 48.1734 10.641C49.2144 11.4506 50.0819 12.2602 50.6024 13.2434C51.1228 14.2265 51.2963 15.3253 51.065 16.9446C50.4289 20.8771 47.1903 24 43.2 24C41.7542 24 40.3084 23.7108 39.0361 23.1325L39.7301 18.7373L40.0771 16.4819C40.7132 17.6386 41.8698 18.853 43.3156 18.853C44.1252 18.853 45.1084 18.3904 45.224 17.4651C45.3397 16.9446 45.224 16.5976 44.9349 16.3084C44.7614 16.0193 44.4722 15.7301 44.1252 15.4988C43.1421 14.6313 42.2747 13.8217 41.6963 12.7807C41.1759 11.7976 40.8867 10.641 41.118 9.07952C41.1759 8.6747 41.2915 8.26988 41.465 7.80723C42.3325 5.32048 44.5879 2.13976 48.6939 2.13976C50.1397 2.08193 51.5277 2.48675 52.6264 3.18072ZM58.4675 13.8795H58.4097L56.906 23.5952H51.1229L54.4771 2.42892H60.2024L58.8145 11.4506H58.8723L63.3832 2.42892H69.3976L63.2675 12.6651L66.6217 23.5952H60.4916L58.4675 13.8795ZM40.771 7.46024L41.5229 2.42892H30.8819L27.5277 23.5952H38.1686L38.9783 18.6217H34.0626L34.5831 15.3831H38.9783L39.7879 10.4096H35.3927L35.8554 7.46024H40.771ZM27.4699 18.6217L26.6603 23.5952H16.6555L20.0097 2.42892H25.735L23.1326 18.6217H27.4699Z" fill="#18181B"/>
</svg>
